<?xml version="1.0" encoding="UTF-8"?>
<svg id="Layer_2" data-name="Layer 2" xmlns="http://www.w3.org/2000/svg" viewBox="0 0 244.56 207.86">
  <defs>
    <style>
      .cls-1 {
        fill: #231f20;
        font-family: Merriweather-Regular, Merriweather;
        font-size: 26.67px;
      }

      .cls-2 {
        letter-spacing: -.02em;
      }

      .cls-3 {
        fill: #e5974d;
      }

      .cls-4 {
        fill: #ffff3b;
      }

      .cls-5 {
        fill: #f0ae0f;
      }

      .cls-6 {
        fill: #81291d;
      }

      .cls-7 {
        fill: #8f4d1a;
      }

      .cls-8 {
        fill: #db7427;
      }

      .cls-9 {
        fill: #a43f2b;
      }

      .cls-10 {
        fill: #fb9179;
      }

      .cls-10, .cls-11, .cls-12, .cls-13, .cls-14, .cls-15, .cls-16, .cls-17, .cls-18, .cls-19 {
        fill-rule: evenodd;
      }

      .cls-11 {
        fill: #967258;
      }

      .cls-12 {
        fill: #96765f;
      }

      .cls-13 {
        fill: #6f3e3e;
      }

      .cls-14 {
        fill: #ff6855;
      }

      .cls-15, .cls-20 {
        fill: #333;
      }

      .cls-16 {
        fill: #ba7d56;
      }

      .cls-17 {
        fill: #a18067;
      }

      .cls-18 {
        fill: #fff7c8;
      }

      .cls-19 {
        fill: #fbbe98;
      }

      .cls-20 {
        font-family: MerriweatherSans-Regular, 'Merriweather Sans';
        font-size: 13px;
        font-variation-settings: 'wght' 400;
      }
    </style>
  </defs>
  <g id="Layer_1-2" data-name="Layer 1">
    <path class="cls-8" d="M66.24,47.31c-.44-6.71,3.27-10.29,9.17-11.84,8.56-2.25,15.64-3.49,22.49-6.17,3.15-1.24,6.34-2.47,9.56-4.13,6.22-3.19,11.17-6.69,14.91-9.69,8.35-6.64,10.18-13.08,15.13-14.78,5.83-2.02,12.12,.32,12.13,7.37,.05,32.57-79.91,68.54-83.38,39.24h0Z"/>
    <path class="cls-9" d="M75.75,63.51c-14.32,2.42-17.27-17.77-2.08-19.94,12.28-2.05,29.99-7.03,44.67-15.47,9.9-5.66,18.42-12.88,22.76-21.69,7.61-13.22,26.15-2.56,20.18,9.54-6.64,13.46-19.11,19.76-32.97,27.71-17.74,10.18-37.91,17.38-52.55,19.86h0Z"/>
    <path class="cls-6" d="M75.75,63.51c-6.49,1.1-10.64-2.44-11.83-6.86,37.01-8.37,69.27-16.89,93.4-54.36,4.22,2.76,6.71,8.05,3.95,13.66-6.64,13.46-19.11,19.76-32.97,27.71-17.74,10.18-37.91,17.38-52.55,19.86h0Z"/>
    <path class="cls-3" d="M71.43,66.75c-.3-5.17,4.32-10.18,10.34-11.2,20.16-3.88,56.29-17.11,67.56-36.65,2.39-4.83,7.07-7.22,10.52-7.17,4.24,.07,7.18,3.75,8.61,10.15,7.64,34.72-93.28,77.56-97.03,44.87h0Z"/>
    <path class="cls-7" d="M165.05,14.23c1.53,1.73,2.68,4.32,3.41,7.64,2.9,13.15-9.78,27.45-26.84,38.38-3.22-2.34-28.43-3.37-28.43-3.37,18.1-1.42,51.48-26.16,51.87-42.65h0Z"/>
    <path class="cls-5" d="M76.78,52.51c-.41,1.64-2.07,2.64-3.71,2.25-1.63-.41-2.64-2.07-2.24-3.71,0,0,1.17-4.85,4.83-8.42,1.91-1.9,4.32-3.29,6.9-3.93,2.51-.64,5.17-.61,7.73,.3,.92,.34,1.85,.73,2.75,1.12,2.47,1.05,4.39,1.86,7.29,.14,1.15-.71,2.12-2.39,2.96-3.88,.36-.63,.69-1.24,.93-1.61,.88-1.39,1.69-2.61,2.76-3.76,1.14-1.2,2.44-2.24,4.22-3.12,3.76-1.86,6.1-1.59,8.56-1.3,1.02,.12,2.05,.24,3.2,.07,.83-.1,1.63-.27,2.41-.54,.76-.25,1.51-.61,2.3-1.12,4.07-2.63,4.46-4.79,4.86-7.15,.39-2.13,.78-4.35,2.51-7.02,1.47-2.27,3.75-3.98,6.25-5.08,2.66-1.15,5.64-1.63,8.22-1.32,1.68,.2,2.88,1.73,2.68,3.41-.2,1.68-1.73,2.88-3.42,2.68-1.52-.19-3.35,.12-5.02,.85-1.49,.64-2.81,1.61-3.58,2.8-1.07,1.64-1.36,3.24-1.63,4.76-.66,3.71-1.27,7.17-7.57,11.24-1.25,.8-2.44,1.36-3.63,1.76-1.17,.41-2.34,.64-3.54,.81-1.93,.25-3.37,.1-4.76-.07-1.54-.19-2.98-.36-5.1,.71-1.05,.53-1.83,1.12-2.49,1.81-.69,.76-1.34,1.73-2.05,2.86-.34,.54-.58,.93-.8,1.36-1.24,2.17-2.63,4.59-5.15,6.12-5.52,3.34-8.71,1.98-12.83,.22-.71-.3-1.47-.63-2.41-.97-1.36-.47-2.78-.49-4.13-.15-1.52,.39-2.96,1.24-4.15,2.39-2.41,2.36-3.15,5.51-3.15,5.51h0Z"/>
    <path class="cls-19" d="M118.01,127.65c35.4,0,67.02,1.08,87.79,2.76v-33.48l14.93,4.8v30.26c6.76,.97,10.56,2.03,10.56,3.17H4.72c.02-1.56,7.25-3.02,19.64-4.22v-20.59h7.22v10.62l3.13-3.56v-22.67l11.61-3.69v38.29c19.52-1.07,44.48-1.69,71.69-1.69h0Zm76.56-39.43h8.39v20.79h-8.39v-20.79Z"/>
    <path class="cls-14" d="M195.96,31.01c12.28,0,22.25,9.96,22.25,22.27s-9.96,22.25-22.25,22.25-22.26-9.96-22.26-22.25,9.96-22.27,22.26-22.27h0Z"/>
    <path class="cls-15" d="M105.96,118.28c5.07,0,9.18,7.2,9.18,16.1s-4.02,15.91-9,16.08v.02h-.24l-8.81-.02h0c-.12,0-.24,.02-.37,.02-4.74,0-8.59-6.74-8.59-15.06s3.85-15.06,8.59-15.06c1.27,0,2.47,.49,3.56,1.36,1.56-2.15,3.52-3.42,5.68-3.42h0Z"/>
    <path class="cls-15" d="M148.87,118.28c5.07,0,9.18,7.2,9.18,16.1s-4.12,16.1-9.18,16.1-9.2-7.22-9.2-16.1,4.12-16.1,9.2-16.1h0Z"/>
    <path class="cls-15" d="M191.79,118.28c5.08,0,9.2,7.2,9.2,16.1s-4.12,16.1-9.2,16.1l-9.66-.02h0c-.13,0-.27,.02-.41,.02-5.07,0-9.18-7.22-9.18-16.1s4.12-16.1,9.18-16.1c1.86,0,3.59,.97,5.03,2.63,1.46-1.66,3.19-2.63,5.03-2.63h0Z"/>
    <path class="cls-15" d="M72.79,118.28c5.08,0,9.2,7.2,9.2,16.1s-4.12,16.1-9.2,16.1-9.18-7.22-9.18-16.1,4.12-16.1,9.18-16.1h0Z"/>
    <polygon class="cls-15" points="156.88 137.34 160.9 105.48 182.76 104.33 210.39 107.89 207.06 137.68 156.88 137.34"/>
    <polygon class="cls-15" points="196.47 137.22 43.08 137.46 45.52 142.15 192.97 141.22 196.47 137.22"/>
    <polygon class="cls-18" points="43.08 137.46 157.92 137.46 160.9 105.48 150 91.84 141.95 62.6 140.84 56.07 136.51 52.77 131.99 51.31 43.08 72.52 43.08 137.46"/>
    <path class="cls-15" d="M131.02,50.99l52.82,17.23c3.1,1.69,4.76,5.08,5.88,9.12l6.18,17.81,14.49,12.74-49.5-2.41-10.9-13.64-8.05-29.25c-1.32-6.3-5.32-9.79-10.93-11.61h0Z"/>
    <path class="cls-19" d="M204.11,113.19c1.93,0,3.34,2.3,3.12,5.13-.2,2.85-1.95,5.13-3.88,5.13s-3.34-2.29-3.13-5.13c.22-2.83,1.95-5.13,3.9-5.13h0Zm-36.14-2.25c2.32,0,3.98,2.75,3.74,6.13-.25,3.39-2.34,6.13-4.66,6.13s-3.98-2.75-3.73-6.13c.25-3.39,2.32-6.13,4.64-6.13h0Z"/>
    <polygon class="cls-16" points="153.48 91.26 146.75 65.97 185.79 75.78 193.04 94.86 153.48 91.26"/>
    <polygon class="cls-15" points="120.79 67.93 136.14 65.19 142.51 90.67 121.32 91.49 120.79 67.93"/>
    <path class="cls-18" d="M131.33,78.12h4.47c1.39,0,2.52,1.13,2.52,2.52v11.12c0,1.39-1.14,2.53-2.52,2.53h-4.47c-1.39,0-2.52-1.14-2.52-2.53v-11.12c0-1.39,1.13-2.52,2.52-2.52h0Z"/>
    <path class="cls-15" d="M135.36,93.84c0,.49-.02,.98-.03,1.42-.02,.53-.03,.92,.03,1.85,.03,.63,.14,1.17,.37,1.46,.19,.22,.56,.34,1.25,.29h4.12v3.17h-4.02c-1.81,.08-3-.49-3.79-1.44-.75-.92-1.02-2.07-1.08-3.27h0c-.07-1.03-.05-1.53-.03-2.17,.02-.27,.02-.58,.02-1.3h3.17Z"/>
    <polygon class="cls-15" points="49.42 80.89 49.42 115.16 114.08 111.45 114.08 69.9 49.42 80.89"/>
    <path class="cls-16" d="M176.4,113.51l-.24,2.96,21.23,1.17,.17-2.69-21.16-1.44Zm-.47,5.83l-.27,3.49,21.37,.96,.22-3.59-21.32-.86Zm-.51,6.27l-.1,1.32c1.51,.75,3.05,1.36,4.63,1.81l13.01,.34c1.25-.25,2.51-.61,3.79-1.05l.12-1.81-21.45-.61Z"/>
    <path class="cls-15" d="M53.15,139.08s-.05-2.83,.19-7.74c.1-2.17,.17-4.03,1.9-5.73,2.34-2.29,13.42-2.71,15.95-.71,2.32,1.83,2.58,5.71,2.56,7.78,0,5.13,.19,6.78,.19,6.78l-20.77-.37Z"/>
    <path class="cls-15" d="M70.06,125.51c1.3,2.66,2.1,6.12,2.1,9.9,0,8.32-3.85,15.06-8.59,15.06s-8.59-6.74-8.59-15.06c0-3.78,.8-7.24,2.1-9.9h12.98Z"/>
    <polygon class="cls-15" points="63.94 150.45 72.97 150.47 73.36 146.57 67.52 145.57 63.94 150.45"/>
    <path class="cls-19" d="M63.57,125.36c2.98,0,5.39,4.49,5.39,10.05s-2.41,10.05-5.39,10.05-5.41-4.49-5.41-10.05,2.42-10.05,5.41-10.05h0Z"/>
    <polygon class="cls-18" points="87 55.58 114.15 64.14 114.15 68.51 86.19 60.72 87 55.58"/>
    <path class="cls-15" d="M127.67,138.29s-.07-9.34,.19-14.59c.1-2.3,.19-4.3,2.03-6.1,2.51-2.46,14.35-2.9,17.05-.78,2.47,1.95,2.75,6.12,2.75,8.32-.02,5.49,.19,13.55,.19,13.55l-22.2-.41Z"/>
    <path class="cls-15" d="M138.8,118.28c5.07,0,9.18,7.2,9.18,16.1s-4.12,16.1-9.18,16.1-9.2-7.22-9.2-16.1,4.12-16.1,9.2-16.1h0Z"/>
    <polygon class="cls-15" points="139.21 150.45 148.87 150.47 149.26 146.3 143.02 145.23 139.21 150.45"/>
    <path class="cls-19" d="M138.8,123.61c3.19,0,5.76,4.81,5.76,10.76s-2.58,10.74-5.76,10.74-5.78-4.81-5.78-10.74,2.59-10.76,5.78-10.76h0Z"/>
    <polygon class="cls-15" points="33.37 75.86 50.35 81.17 114.08 75.8 114.15 68.51 86.51 60.65 32.66 72 33.37 75.86"/>
    <polygon class="cls-18" points="29.44 68.9 87 55.58 87.04 60.51 29.22 72.71 29.44 68.9"/>
    <polygon class="cls-10" points="55.18 102.28 55.18 82.84 77.78 88.25 77.78 98.3 69.5 98.64 55.18 102.28"/>
    <polygon class="cls-15" points="185.55 78.57 152.37 71.64 156.56 88.54 194.16 95.72 185.55 78.57"/>
    <polygon class="cls-17" points="185.13 82.51 188.03 92.76 179.37 91.35 178.93 83.05 185.13 82.51"/>
    <polygon class="cls-16" points="98.68 59.26 114.15 64.14 104.39 57.9 98.68 59.26"/>
    <polygon class="cls-15" points="43.2 137.46 43.2 101.65 41.25 137.93 45.66 142.15 43.2 137.46"/>
    <path class="cls-12" d="M148.15,141.22c-.66,2.64-1.95,4.9-3.62,6.46,2.71-1.15,4.88-4.29,5.78-8.3h-1.66c-.14,.63-.3,1.25-.49,1.85h0Zm-75.74,0c-.66,2.64-1.95,4.9-3.64,6.46,2.73-1.15,4.9-4.29,5.79-8.3h-1.66c-.14,.63-.31,1.25-.49,1.85h0Z"/>
    <path class="cls-15" d="M65.58,126.31c1.49,0,2.83,1.17,3.74,3.02-.71-.69-1.53-1.1-2.41-1.1-2.78,0-5.05,4.1-5.05,9.17,0,2.36,.49,4.51,1.31,6.13-1.58-1.54-2.64-4.58-2.64-8.05,0-5.07,2.27-9.17,5.05-9.17h0Z"/>
    <path class="cls-15" d="M141.36,124.65c1.64,0,3.13,1.3,4.15,3.36-.78-.78-1.7-1.22-2.66-1.22-3.1,0-5.61,4.54-5.61,10.15,0,2.63,.56,5.02,1.46,6.81-1.74-1.71-2.93-5.08-2.93-8.93,0-5.61,2.51-10.17,5.59-10.17h0Z"/>
    <path class="cls-15" d="M126.18,146.73c57.39,0,103.92,3.35,103.94,7.51H22.26c.02-4.15,46.53-7.51,103.92-7.51h0Z"/>
    <path class="cls-18" d="M43.84,71.98c-.95,2.66-3.8,5.08-7.17,5.83-4.15,.93-7.51-1.02-7.51-4.35,0-.25,.02-.51,.05-.75,19.25-4.3,38.52-8.62,57.76-12.93,.03,.24,.05,.47,.05,.73,.15,9.76-11.88,11.93-14.62,5.2-1.44,6.37-11.3,9.39-14.27,3.17-.98,2.63-3.81,4.98-7.13,5.73-3.35,.74-6.2-.39-7.17-2.63h0Z"/>
    <polygon class="cls-13" points="81.43 98.08 81.43 88.1 111.57 84.06 111.57 96.4 81.43 98.08"/>
    <polygon class="cls-15" points="121.18 84.88 121.1 128.61 124.32 90.5 121.18 84.88"/>
    <path class="cls-15" d="M57.91,129.63s1.9-.75,5.9-.98c4-.25,5.41,.08,5.41,.08l-1.98-3.02s-3.74-.88-4.17-.85c-.44,.03-3.3,.19-3.56,.51-.25,.32-1.59,4.25-1.59,4.25h0Z"/>
    <polygon class="cls-16" points="49.45 120.11 113.86 117.16 113.91 119.58 49.38 121.38 49.45 120.11"/>
    <path class="cls-16" d="M166.63,127.78c1.17,0,2.02,1.19,1.91,2.63-.12,1.44-1.15,2.61-2.32,2.61s-2.02-1.17-1.91-2.61c.12-1.44,1.15-2.63,2.32-2.63h0Z"/>
    <path class="cls-16" d="M202.55,128.15c1,0,1.73,1.13,1.64,2.51-.1,1.39-.98,2.51-1.98,2.51s-1.75-1.12-1.64-2.51c.08-1.37,.97-2.51,1.98-2.51h0Z"/>
    <path d="M.94,186.24c-.52,0-.94-.29-.94-.64s.42-.63,.94-.63H54.9l-.37,1.27H.94Zm197.57-1.27h45.13c.5,0,.92,.29,.92,.63,0,.36-.42,.64-.92,.64h-45.28l.15-1.27ZM.94,200.61c-.52,0-.94-.29-.94-.64s.42-.63,.94-.63H51.41l-.1,1.27H.94Zm191.89-1.27h50.81c.5,0,.92,.29,.92,.63s-.42,.64-.92,.64h-52.35l1.54-1.27Z"/>
    <path class="cls-14" d="M199.92,70.98l5.96,1.98v8.18c0,2.12-1.34,3.86-2.98,3.86h0c-1.64,0-2.98-1.75-2.98-3.86v-10.17Z"/>
    <path class="cls-14" d="M206.78,66.64l4.64,1.29v8.32c0,1.39-1.03,2.51-2.32,2.51h0c-1.27,0-2.32-1.12-2.32-2.51v-9.61Z"/>
    <path class="cls-4" d="M137.12,14.81c-.14,.51-.64,.81-1.15,.7-.51-.12-.83-.64-.69-1.15,.54-2.2,1.91-4.36,3.95-5.88,1.78-1.34,4.08-2.19,6.79-2.2,.53,0,.95,.42,.95,.95s-.42,.95-.95,.95c-2.27,0-4.19,.71-5.66,1.83-1.68,1.24-2.8,3-3.24,4.81h0Zm-59.82,32.03c-.24,.46-.81,.63-1.29,.39-.46-.25-.63-.83-.37-1.29,1.07-2.02,2.91-3.75,5.27-4.73,2.05-.85,4.49-1.12,7.13-.46,.51,.14,.81,.64,.68,1.15-.12,.51-.64,.81-1.15,.7-2.2-.56-4.24-.34-5.93,.37-1.93,.8-3.46,2.22-4.34,3.86h0Zm31.08-10.86c-.19,.49-.75,.73-1.22,.54-.49-.17-.75-.73-.56-1.22,.8-2.13,2.41-4.1,4.59-5.37,1.93-1.12,4.32-1.71,7.02-1.41,.53,.07,.9,.54,.83,1.05-.05,.53-.52,.9-1.05,.85-2.25-.27-4.24,.22-5.85,1.15-1.8,1.03-3.12,2.66-3.76,4.41h0Z"/>
    <polygon class="cls-11" points="56.57 110.28 65.77 103.38 77.8 102.62 69.58 109.43 56.57 110.28"/>
    <polygon class="cls-11" points="76.55 108.97 84.34 102.08 96.39 101.31 89.7 108.13 76.55 108.97"/>
    <polygon class="cls-11" points="95.8 107.8 102.46 100.91 108.89 100.5 108.89 106.96 95.8 107.8"/>
    <text class="cls-1" transform="translate(58.16 200.61) scale(.52 1)"><tspan x="0" y="0">FRANKS DELIGHT</tspan></text>
    <text class="cls-20" transform="translate(197.24 197.4)"><tspan x="0" y="0">TRUCK</tspan></text>
    <text class="cls-20" transform="translate(4.72 197.4)"><tspan class="cls-2" x="0" y="0">F</tspan><tspan x="6.6" y="0">OOD</tspan></text>
    <text class="cls-20" transform="translate(179.34 66.7) rotate(-15.62)"><tspan x="0" y="0">DOGS</tspan></text>
    <text class="cls-20" transform="translate(179.68 52.91) rotate(-15.62)"><tspan x="0" y="0">HOT</tspan></text>
  </g>
</svg>