<?xml version="1.0" encoding="UTF-8" standalone="no"?>
<!DOCTYPE svg PUBLIC "-//W3C//DTD SVG 1.1//EN" "http://www.w3.org/Graphics/SVG/1.1/DTD/svg11.dtd">
<!-- Created with Vectornator (http://vectornator.io/) -->
<svg height="100%" stroke-miterlimit="10" style="fill-rule:nonzero;clip-rule:evenodd;stroke-linecap:round;stroke-linejoin:round;" version="1.1" viewBox="0 0 258 354.622" width="100%" xml:space="preserve" xmlns="http://www.w3.org/2000/svg" xmlns:vectornator="http://vectornator.io" xmlns:xlink="http://www.w3.org/1999/xlink">
<defs/>
<g id="g8" vectornator:layerName="g8">
<path d="M219.15 219.87C169.176 269.86 88.1198 269.851 38.1448 219.87C-11.8547 169.878-11.8547 88.8302 38.1448 38.8402C88.1323-11.1428 169.18-11.1428 219.145 38.8473C269.142 88.8278 269.142 169.877 219.149 219.867" fill="#ffffff" fill-rule="nonzero" opacity="1" stroke="none"/>
<path d="M199.885 34.3062C180.02 19.4047 155.37 10.5782 128.645 10.5782C63.0448 10.5782 9.86978 63.7632 9.86978 129.363C9.86978 155.762 18.4913 180.143 33.0578 199.863C112.933 176.608 176.013 113.943 199.883 34.3032" fill="#ed1a34" fill-rule="nonzero" opacity="1" stroke="none"/>
<path d="M228.281 64.8125C230.663 72.5691 232.031 80.7876 232.031 89.3125C232.031 116.889 218.441 141.154 197.844 156.344C161.969 182.754 109.696 182.791 37.5312 205.531C59.3162 231.566 92.0512 248.156 128.656 248.156C194.261 248.156 247.437 194.97 247.438 129.375C247.438 105.57 240.368 83.4174 228.281 64.8125Z" fill="#2153a1" fill-rule="nonzero" opacity="1" stroke="none"/>
</g>
</svg>
