<?xml version="1.0" encoding="UTF-8" standalone="no"?>
<!-- Created with Inkscape (http://www.inkscape.org/) -->

<svg
   xmlns:dc="http://purl.org/dc/elements/1.1/"
   xmlns:cc="http://creativecommons.org/ns#"
   xmlns:rdf="http://www.w3.org/1999/02/22-rdf-syntax-ns#"
   xmlns:svg="http://www.w3.org/2000/svg"
   xmlns="http://www.w3.org/2000/svg"
   xmlns:sodipodi="http://sodipodi.sourceforge.net/DTD/sodipodi-0.dtd"
   xmlns:inkscape="http://www.inkscape.org/namespaces/inkscape"
   width="122.95733"
   height="114.22667"
   viewBox="0 0 32.532459 30.222473"
   version="1.1"
   id="svg5972"
   inkscape:version="0.92.0 r15299"
   sodipodi:docname="us foods.svg">
  <defs
     id="defs5966" />
  <sodipodi:namedview
     id="base"
     pagecolor="#ffffff"
     bordercolor="#666666"
     borderopacity="1.0"
     inkscape:pageopacity="0.0"
     inkscape:pageshadow="2"
     inkscape:zoom="4.7073715"
     inkscape:cx="60.978663"
     inkscape:cy="56.613329"
     inkscape:document-units="mm"
     inkscape:current-layer="layer1"
     showgrid="false"
     inkscape:window-width="1280"
     inkscape:window-height="744"
     inkscape:window-x="-4"
     inkscape:window-y="-4"
     inkscape:window-maximized="1"
     fit-margin-top="0"
     fit-margin-left="0"
     fit-margin-right="0"
     fit-margin-bottom="0"
     units="px" />
  <metadata
     id="metadata5969">
    <rdf:RDF>
      <cc:Work
         rdf:about="">
        <dc:format>image/svg+xml</dc:format>
        <dc:type
           rdf:resource="http://purl.org/dc/dcmitype/StillImage" />
        <dc:title></dc:title>
      </cc:Work>
    </rdf:RDF>
  </metadata>
  <g
     inkscape:label="Layer 1"
     inkscape:groupmode="layer"
     id="layer1"
     transform="translate(-78.360106,-203.89338)">
    <g
       id="g6002"
       transform="translate(0.13229296,-0.1322889)">
      <path
         d="m 105.38711,229.43696 c -0.89711,-0.35525 -1.27776,-0.5013 -1.27776,-0.88053 0,-0.33444 0.3175,-0.55916 0.89747,-0.55916 0.70555,0 1.23366,0.21132 1.53916,0.35807 l 0.40111,-1.6203 c -0.46496,-0.21167 -1.07667,-0.37854 -1.91875,-0.37854 -1.46333,0 -2.44087,0.68334 -2.75167,1.65735 -0.20849,-0.34501 -0.47272,-0.62935 -0.78105,-0.85442 -0.69674,-0.51224 -1.559985,-0.74683 -2.921002,-0.74683 -0.843138,0 -1.65488,0.0547 -2.266597,0.16686 v 2.21015 c -0.416277,-1.39206 -1.503539,-2.44369 -3.252964,-2.44369 -1.617838,0 -2.776008,0.95638 -3.268486,2.34174 -0.438502,-1.34161 -1.516591,-2.34174 -3.222272,-2.34174 -1.920522,0 -3.194402,1.34585 -3.473802,3.15948 h -2.395714 v -1.38465 h 2.657122 v -1.65347 h -4.56565 v 7.52651 h 1.908528 v -2.85856 h 2.411236 c 0.289983,1.68699 1.448505,2.98062 3.340805,2.98062 h 0.01164 c 1.634419,0 2.813755,-0.8643 3.302705,-2.3174 0.452967,1.35114 1.541287,2.3174 3.17747,2.3174 h 0.01023 c 1.70427,0 2.911123,-0.94262 3.35915,-2.50966 v 2.34139 c 0.367948,0.0677 0.982134,0.13546 1.897592,0.13546 1.392414,0 2.562929,-0.27975 3.342569,-0.92851 0.67134,-0.55562 1.20862,-1.51941 1.23155,-3.00461 0.34713,0.3422 0.82515,0.61243 1.39382,0.82938 0.80257,0.28893 1.1176,0.49072 1.1176,0.85831 0,0.37959 -0.31503,0.61595 -0.97049,0.61595 -0.38664,0 -0.76552,-0.0699 -1.10172,-0.16898 -0.25824,0.56727 -0.61207,1.01988 -1.01706,1.35255 -0.0131,0.0116 -0.0275,0.0212 -0.0409,0.031 0.41381,0.21695 1.21849,0.43638 2.04434,0.43638 2.07716,0 3.02543,-1.10454 3.02543,-2.39994 0,-1.05022 -0.56833,-1.76389 -1.84362,-2.26766 m -18.844685,3.08292 h -0.02187 c -0.91687,0 -1.4859,-0.93768 -1.47567,-2.28811 0,-1.30704 0.5588,-2.28953 1.47567,-2.28953 0.929569,0 1.477786,0.98249 1.477786,2.27789 0,1.36207 -0.539044,2.29975 -1.455914,2.29975 m 6.490405,0 h -0.02011 c -0.917928,0 -1.487311,-0.93768 -1.477433,-2.28811 0,-1.30704 0.559505,-2.28953 1.477433,-2.28953 0.927453,0 1.476022,0.98249 1.476022,2.27789 0,1.36207 -0.538691,2.29975 -1.455914,2.29975 m 5.584473,0 c -0.127353,0 -0.305859,0 -0.398992,-0.0233 v -4.49862 c 0.09313,-0.0222 0.282222,-0.0437 0.578555,-0.0437 1.138767,0 1.971674,0.6925 1.971674,2.16429 0,1.69686 -0.917221,2.42358 -2.151237,2.40135"
         style="fill:#ec4025;fill-opacity:1;fill-rule:nonzero;stroke:none;stroke-width:0.35277778"
         id="path5901"
         inkscape:connector-curvature="0" />
      <path
         d="m 108.49156,225.16412 c -1.32186,0 -2.04682,-1.00647 -2.04682,-2.20416 0,-1.25553 0.80857,-2.25425 2.11561,-2.25425 1.37195,0 2.06763,1.03047 2.06763,2.18405 0,1.38995 -0.82232,2.27436 -2.13007,2.27436"
         style="fill:#558618;fill-opacity:1;fill-rule:nonzero;stroke:none;stroke-width:0.35277778"
         id="path5905"
         inkscape:connector-curvature="0" />
      <path
         d="m 101.80748,212.54102 c -2.383014,-0.96908 -3.127022,-1.39418 -3.127022,-2.42182 0,-0.9084 0.841728,-1.51447 2.383722,-1.51447 1.90464,0 3.30623,0.60607 4.11974,0.97013 l 1.06433,-4.35751 c -1.26013,-0.60607 -2.85891,-1.05939 -5.12974,-1.05939 -3.138316,0 -5.437016,1.20827 -6.641047,3.06247 v -2.73156 h -5.072591 v 11.59263 c 0,3.23779 -0.981428,4.81224 -3.001081,4.81224 -1.990019,0 -2.998258,-1.75507 -2.998258,-4.84258 v -11.56229 h -5.045427 v 11.1386 c 0,6.53768 2.718858,9.59344 7.905397,9.59344 5.296958,0 8.21196,-3.17853 8.21196,-9.47208 v -1.92758 c 0.854075,1.2573 2.254603,2.19393 4.104923,2.89489 2.130424,0.78846 2.971094,1.36314 2.971094,2.33328 0,1.02552 -0.81739,1.66264 -2.5527,1.66264 -0.906992,0 -1.991078,-0.17639 -3.016955,-0.47413 -0.230364,0.84913 -0.535164,1.64676 -0.927453,2.38301 -0.354895,0.67239 -0.787047,1.28094 -1.277761,1.82386 1.661583,0.52917 3.533422,0.77999 4.930775,0.77999 5.520974,0 8.030284,-3.03001 8.030284,-6.54156 0,-2.8448 -1.54164,-4.78084 -4.93219,-6.14221"
         style="fill:#558618;fill-opacity:1;fill-rule:nonzero;stroke:none;stroke-width:0.35277778"
         id="path5909"
         inkscape:connector-curvature="0" />
      <path
         d="m 107.77436,226.70611 c 0.31679,0 0.57009,0.24977 0.57009,0.55386 0,0.31045 -0.2533,0.56056 -0.57362,0.56056 -0.31961,0 -0.57961,-0.25011 -0.57961,-0.56056 0,-0.30409 0.26,-0.55386 0.57961,-0.55386 z m -0.01,0.14852 c -0.22154,0 -0.38946,0.18027 -0.38946,0.40887 0,0.22789 0.16792,0.40816 0.39264,0.40816 0.22824,0.004 0.39617,-0.18027 0.39617,-0.41169 0,-0.22507 -0.16793,-0.40534 -0.39617,-0.40534 z m -0.0568,0.65899 h -0.17428 v -0.49424 c 0.0318,-0.004 0.12312,-0.0194 0.23425,-0.0194 0.12382,0 0.17462,0.0159 0.21237,0.0413 0.0318,0.0222 0.054,0.06 0.054,0.1076 0,0.048 -0.0476,0.0956 -0.12065,0.11112 v 0.006 c 0.0603,0.0194 0.0921,0.06 0.10795,0.12982 0.0162,0.0727 0.0286,0.10196 0.0349,0.11748 h -0.19332 c -0.0159,-0.0194 -0.0254,-0.06 -0.0349,-0.0984 -0.006,-0.0476 -0.0318,-0.0699 -0.0762,-0.0699 h -0.0441 z m 0.006,-0.28187 h 0.0377 c 0.0572,0 0.0825,-0.0258 0.0825,-0.0572 0,-0.0385 -0.0317,-0.0543 -0.0758,-0.0543 -0.0159,0 -0.0317,0.004 -0.0444,0.004"
         style="fill:#ec4025;fill-opacity:1;fill-rule:nonzero;stroke:none;stroke-width:0.35277778"
         id="path5913"
         inkscape:connector-curvature="0" />
    </g>
  </g>
</svg>
